<svg xmlns="http://www.w3.org/2000/svg" xmlns:xlink="http://www.w3.org/1999/xlink" width="200" zoomAndPan="magnify" viewBox="0 0 150 149.999998" height="200" preserveAspectRatio="xMidYMid meet" version="1.0"><defs><clipPath id="id1"><path d="M 0 7 L 150 7 L 150 143.183594 L 0 143.183594 Z M 0 7 " clip-rule="nonzero"/></clipPath></defs><g clip-path="url(#id1)"><path fill="rgb(60.778809%, 97.648621%, 76.469421%)" d="M 146.726562 143.183594 C 144.988281 143.183594 143.566406 141.761719 143.566406 140.023438 C 143.566406 126.640625 133.519531 124.746094 117.152344 122.789062 C 108.652344 121.777344 99.835938 120.707031 92.882812 116.824219 C 84.574219 112.152344 80.5625 104.351562 80.5625 92.988281 C 80.5625 70.703125 73.136719 67.039062 63.75 62.367188 C 55.976562 58.515625 47.128906 54.160156 42.265625 39.261719 C 38.378906 27.328125 30.730469 19.433594 19.578125 15.835938 C 11.171875 13.121094 3.90625 13.910156 3.839844 13.941406 C 2.105469 14.132812 0.523438 12.902344 0.335938 11.164062 C 0.113281 9.429688 1.34375 7.882812 3.082031 7.660156 C 3.429688 7.628906 11.773438 6.683594 21.503906 9.839844 C 30.574219 12.773438 42.582031 19.910156 48.269531 37.269531 C 52.3125 49.644531 59.234375 53.085938 66.5625 56.683594 C 76.546875 61.609375 86.878906 66.722656 86.878906 92.957031 C 86.878906 104.796875 92.09375 109.089844 95.980469 111.296875 C 101.828125 114.582031 109.980469 115.558594 117.878906 116.507812 C 125.746094 117.453125 133.203125 118.335938 139.144531 121.367188 C 146.347656 125.03125 149.855469 131.15625 149.855469 140.023438 C 149.886719 141.761719 148.464844 143.183594 146.726562 143.183594 Z M 146.726562 143.183594 " fill-opacity="1" fill-rule="nonzero"/></g></svg>