<!--?xml version="1.0" encoding="UTF-8"?-->
<svg fill="#404A3D" xmlns="http://www.w3.org/2000/svg" id="Layer_3" data-name="Layer 3" viewBox="0 0 64 64" width="512" height="512"><path d="M62,25H47.414l1-1H54V22H50.414l1.045-1.045,6.968-.773a5.863,5.863,0,0,0,3.478-1.672l.8-.8a1,1,0,0,0,0-1.414l-1.586-1.586a5.787,5.787,0,0,0-3.2-1.635,5.868,5.868,0,0,0-1.631-3.193L54.707,8.293a1.032,1.032,0,0,0-1.415,0l-.8.8a5.85,5.85,0,0,0-1.672,3.478l-.774,6.968L49,20.586V17H47v5.586l-2,2L42.334,21.92A9.825,9.825,0,0,0,36,19.053V18a9,9,0,0,0-4.493-7.778L34.9,3.447a1,1,0,0,0-.652-1.417l-4-1a1.008,1.008,0,0,0-.8.138L27.127,2.713l-1.42-1.42a.992.992,0,0,0-.95-.263l-4,1a1,1,0,0,0-.694,1.322l2.55,6.8a9.005,9.005,0,0,0-4.58,7.192,8.988,8.988,0,0,0-1.526-1.119L19.9,9.447a1,1,0,0,0-.652-1.417l-4-1a1,1,0,0,0-.8.138L12.127,8.713l-1.42-1.42a1,1,0,0,0-.95-.263l-4,1a1,1,0,0,0-.694,1.322l2.55,6.8A9,9,0,0,0,3,24v1H2a1,1,0,0,0-1,1v6a1,1,0,0,0,1,1H3.142l3.87,25.152A1,1,0,0,0,8,59h4.1a5,5,0,0,0,9.8,0H42.1a5,5,0,0,0,9.8,0H56a1,1,0,0,0,.988-.848L60.858,33H62a1,1,0,0,0,1-1V26A1,1,0,0,0,62,25ZM52.807,12.794a3.83,3.83,0,0,1,1.1-2.284l.095-.1.879.879A3.857,3.857,0,0,1,56,14a1,1,0,0,0,1,1,3.8,3.8,0,0,1,2.707,1.121l.879.879-.095.095a3.843,3.843,0,0,1-2.285,1.1l-4.483.5,1.984-1.984-1.414-1.414-1.984,1.984ZM40.921,23.335,42.586,25H24l.775-1.034A2.427,2.427,0,0,1,26.707,23h.879a4.385,4.385,0,0,0,3.122-1.293A2.394,2.394,0,0,1,32.414,21h2.869a7.95,7.95,0,0,1,4.423,1.339A8.04,8.04,0,0,1,40.921,23.335ZM23.326,18.519A6.517,6.517,0,0,1,29.6,20.038c-.1.086-.214.159-.31.255A2.394,2.394,0,0,1,27.586,21h-.879a4.437,4.437,0,0,0-3.532,1.766L21.5,25H21V24a8.931,8.931,0,0,0-1.2-4.473ZM22.33,3.7l2.363-.591,1.6,1.6a1,1,0,0,0,1.262.125l2.632-1.755,2.361.591-2.87,5.739a8.944,8.944,0,0,0-5.22-.035ZM27,11a7.008,7.008,0,0,1,7,7v1H32.414a4.445,4.445,0,0,0-.9.1l-.321-.321a8.568,8.568,0,0,0-8.413-2.18l-2.745.784A7.008,7.008,0,0,1,27,11ZM7.33,9.7l2.363-.591,1.6,1.6a1,1,0,0,0,1.262.125l2.632-1.755,2.361.591-2.87,5.739a8.944,8.944,0,0,0-5.22-.035ZM5,24a7,7,0,0,1,14,0v1H5ZM17,61a3,3,0,1,1,3-3A3,3,0,0,1,17,61Zm30,0a3,3,0,1,1,3-3A3,3,0,0,1,47,61Zm8.142-4H51.9a5,5,0,0,0-9.8,0H21.9a5,5,0,0,0-9.8,0H8.858L5.166,33H58.834ZM61,31H3V27H61Z"></path><path d="M40,14a1,1,0,0,0,.707-.293l2-2-1.414-1.414L40,11.586l-1.293-1.293-1.414,1.414,2,2A1,1,0,0,0,40,14Z"></path><path d="M47,8a1,1,0,0,0,.707-.293l2-2L48.293,4.293,47,5.586,45.707,4.293,44.293,5.707l2,2A1,1,0,0,0,47,8Z"></path></svg>
