<svg fill="#404A3D" id="Capa_1" enable-background="new 0 0 512 512" height="512" viewBox="0 0 512 512" width="512" xmlns="http://www.w3.org/2000/svg"><g><circle cx="70" cy="426" r="10"></circle><path d="m453.884 321.97 17.603-52.808c1.017-3.05.505-6.401-1.375-9.009-1.879-2.608-4.898-4.153-8.112-4.153h-80c-3.214 0-6.233 1.545-8.112 4.153-1.879 2.607-2.391 5.959-1.375 9.009l17.607 52.821c-10.057 7.328-19.671 16.768-28.121 27.575-8.449-10.803-18.064-20.243-28.119-27.573l17.608-52.823c1.017-3.05.505-6.401-1.375-9.009s-4.899-4.153-8.113-4.153h-52.463l1.788-21.473c11.988-3.917 20.675-15.207 20.675-28.487v-30.04h10c5.523 0 10-4.478 10-10s-4.477-10-10-10h-10v-20h10c5.523 0 10-4.478 10-10v-20c0-16.542-13.458-30-30-30h-76v-30c0-5.522-4.477-10-10-10h-100c-5.523 0-10 4.478-10 10v30h-76c-16.542 0-30 13.458-30 30v20c0 5.522 4.477 10 10 10h10v20h-10c-5.523 0-10 4.478-10 10s4.477 10 10 10h10v30.63c0 13.174 8.719 24.351 20.689 28.062l12.032 144.368c-19.408 7.077-32.721 25.561-32.721 46.94 0 27.57 22.43 50 50 50 14.902 0 263.202-.002 263.303-.005 12.224-.37 21.302-1.63 28.754-4.02 10.018 3.159 21.555 3.825 31.749 4.023.064.001 58.371.001 58.459-.002 19.39-.516 59.735-1.589 59.735-49.996 0-35.814-25.04-79.991-58.116-104.03zm-5.758-45.97-13.333 40h-25.585l-13.333-40zm-133.334 40h-25.585l-13.333-40h52.252zm-188.792-260h80v20h-80zm-76.63 160c-5.167 0-9.37-4.203-9.37-9.37v-70.63h40v30c0 5.522 4.477 10 10 10s10-4.478 10-10v-30h21c5.523 0 10-4.478 10-10s-4.477-10-10-10c-12.572 0-73.68 0-101 0v-10c0-5.514 4.486-10 10-10h272c5.514 0 10 4.486 10 10v10c-27.409 0-88.476 0-101 0-5.523 0-10 4.478-10 10s4.477 10 10 10h21v30c0 5.522 4.477 10 10 10s10-4.478 10-10v-30h40v70.04c0 5.492-4.468 9.96-10 9.96-5.201 0-9.534 3.987-9.965 9.17l-2.567 30.83h-7.468c-3.214 0-6.233 1.545-8.112 4.153-1.879 2.607-2.391 5.959-1.375 9.009l17.603 52.808c-33.076 24.039-58.116 68.216-58.116 104.03 0 13.21 3.009 22.889 7.773 30h-109.8c6.292-8.363 10.027-18.752 10.027-30 0-26.718-21.065-48.608-47.459-49.936l-12.576-150.894c-.431-5.184-4.764-9.17-9.965-9.17zm-9.37 210c0-16.767 13.481-30 30-30 16.542 0 30 13.458 30 30s-13.458 30-30 30-30-13.458-30-30zm292.847 30h-60.712c-31.129-.847-40.135-7.589-40.135-30 0-30.601 23.553-70.353 52.966-90h34.076c12.71 8.509 24.904 21.256 34.557 36.185 11.694 18.107 18.401 37.722 18.401 53.815 0 17.814-6.379 23.069-13.364 25.953-.242.086-.48.178-.713.282-5.784 2.241-13.549 3.408-25.076 3.765zm119.019 0s-64.139-.169-67.373-.389c4.975-7.675 7.507-17.551 7.507-29.611 0-18.366-6.403-39.089-18.101-58.963 9.025-12.711 19.837-23.531 31.058-31.037h34.077c29.413 19.647 52.966 59.399 52.966 90 0 22.411-9.006 29.153-40.134 30z"></path><path d="m216 356c5.523 0 10-4.478 10-10v-120c0-5.522-4.477-10-10-10s-10 4.478-10 10v120c0 5.522 4.477 10 10 10z"></path><path d="m166 356c5.523 0 10-4.478 10-10v-120c0-5.522-4.477-10-10-10s-10 4.478-10 10v120c0 5.522 4.477 10 10 10z"></path><path d="m116 356c5.523 0 10-4.478 10-10v-120c0-5.522-4.477-10-10-10s-10 4.478-10 10v120c0 5.522 4.477 10 10 10z"></path><circle cx="166" cy="126" r="10"></circle></g></svg>