<svg fill="#404A3D" height="512" viewBox="0 0 64 64" width="512" xmlns="http://www.w3.org/2000/svg"><g id="_15-Garbage_truck" data-name="15-Garbage truck"><path d="m12 51a7 7 0 1 1 7-7 7.008 7.008 0 0 1 -7 7zm0-12a5 5 0 1 0 5 5 5.006 5.006 0 0 0 -5-5z"></path><path d="m12 48a4 4 0 1 1 4-4 4 4 0 0 1 -4 4zm0-6a2 2 0 1 0 2 2 2 2 0 0 0 -2-2z"></path><path d="m52 51a7 7 0 1 1 7-7 7.008 7.008 0 0 1 -7 7zm0-12a5 5 0 1 0 5 5 5.006 5.006 0 0 0 -5-5z"></path><path d="m52 48a4 4 0 1 1 4-4 4 4 0 0 1 -4 4zm0-6a2 2 0 1 0 2 2 2 2 0 0 0 -2-2z"></path><path d="m18 43h28v2h-28z"></path><path d="m63 45h-5v-2h4v-13.7l-5.535-8.3h-12.465v23h-2v-24a1 1 0 0 1 1-1h14a1 1 0 0 1 .832.445l6 9a1.006 1.006 0 0 1 .168.555v15a1 1 0 0 1 -1 1z"></path><path d="m57 40h6v2h-6z"></path><path d="m63 38h-4a1 1 0 0 1 -1-1v-4a1 1 0 0 1 1-1h4v2h-3v2h3z"></path><path d="m63 30h-13a1 1 0 0 1 -1-1v-6a1 1 0 0 1 1-1h9v2h-8v4h12z"></path><path d="m17 40h26v2h-26z"></path><path d="m6 39h-5a1 1 0 0 1 -1-1v-13a1 1 0 0 1 .09-.414l5-11a1 1 0 0 1 .91-.586h9a1 1 0 0 1 1 1v1h25a3 3 0 0 1 3 3v2h-2v-2a1 1 0 0 0 -1-1h-25.329l-8.745 21.379a1 1 0 0 1 -.926.621zm-4-2h3.329l8.671-21.2v-.8h-7.356l-4.644 10.217z"></path><path d="m6 37h6v2h-6z"></path><path d="m6 45h-5a1 1 0 0 1 -1-1v-6h2v5h4z"></path><path d="m2.615 26h23.77v2h-23.77z" transform="matrix(.379 -.925 .925 .379 -15.98 30.192)"></path><path d="m54 20h-2v-3h-4v3h-2v-4a1 1 0 0 1 1-1h6a1 1 0 0 1 1 1z"></path><path d="m25 37a3 3 0 0 1 -3-3v-10a3 3 0 0 1 6 0v10a3 3 0 0 1 -3 3zm0-14a1 1 0 0 0 -1 1v10a1 1 0 0 0 2 0v-10a1 1 0 0 0 -1-1z"></path><path d="m35 37a3 3 0 0 1 -3-3v-10a3 3 0 0 1 6 0v10a3 3 0 0 1 -3 3zm0-14a1 1 0 0 0 -1 1v10a1 1 0 0 0 2 0v-10a1 1 0 0 0 -1-1z"></path></g></svg>