<svg fill="#404A3D" id="Layer_5" enable-background="new 0 0 62 62" height="512" viewBox="0 0 62 62" width="512" xmlns="http://www.w3.org/2000/svg"><g><path d="m59.932 44.832-5.511-7.578 2.355-1.57c2.002-1.336 2.7-3.966 1.625-6.119-.256-.513-.721-.891-1.275-1.039-.555-.147-1.146-.049-1.623.269l-1.192.794c-.793-.996-1.998-1.589-3.311-1.589s-2.518.593-3.311 1.591l-1.192-.794c-.478-.318-1.07-.417-1.623-.269-.554.147-1.019.526-1.275 1.039-1.076 2.153-.377 4.783 1.625 6.119l2.355 1.57-5.436 7.475-3.573-3.573 2.207-1.471c2.002-1.336 2.701-3.966 1.625-6.118-.256-.513-.721-.892-1.275-1.039-.555-.147-1.146-.05-1.623.269l-1.192.795c-.794-1.001-1.999-1.594-3.312-1.594-1.16 0-2.218.483-3 1.279v-5.279c1.103 0 2-.897 2-2v-2c0-.061-.013-.119-.018-.179 1.171-.409 2.018-1.512 2.018-2.821v-.764c0-1.143-.635-2.171-1.658-2.683l-.153-.077c-.239-.12-.417-.325-.502-.579l-.412-1.237 1.895-1.516 4.459 1.784.743-1.857-3.407-1.363.871-.697 4.792 1.917.743-1.857-3.74-1.496.719-.575h8.65c.552 0 1-.448 1-1v-3c0-.459-.313-.859-.757-.97l-3.418-.854-.855-3.419c-.112-.445-.512-.757-.97-.757h-3c-.504 0-.93.375-.992.876l-.95 7.597-.64.512-.427-3.121-1.981.271.59 4.305-.94.752-.68-3.388-1.96.392.88 4.404-1.7 1.36c-.072-.058-.139-.121-.216-.172l-1.925-1.283c-.495-.331-1.071-.505-1.665-.505h-1.921c-.154 0-.309-.037-.447-.106l-.47-.235 3.444-2.097v-.562c0-2.226-1.418-4.194-3.53-4.897l-.027-.009-4.807-3.204c-.872-.582-1.886-.89-2.935-.89h-.486c-.979 0-1.938.271-2.772.785l-10.925 6.722c-.84.517-1.518 1.257-1.96 2.14-.365.732-.558 1.55-.558 2.366v6.425.562c0 2.043 1.203 3.856 3.032 4.686-.017.103-.032.207-.032.314v2c0 1.103.897 2 2 2v20.08c-3.387.488-6 3.401-6 6.92 0 3.859 3.14 7 7 7 1.902 0 3.627-.765 4.889-2h15.791c1.606 1.249 3.617 2 5.805 2h3.029c2.606 0 5.103-1.091 6.882-2.963 1.939 1.831 4.544 2.963 7.414 2.963h.38c5.96 0 10.81-4.85 10.81-10.81 0-2.3-.715-4.499-2.068-6.358zm-18.049-42.832h1.336l.811 3.243c.09.358.37.638.728.728l3.242.81v1.219h-6.867zm3.505 28.46 3 2 .612-1.224c.381-.762 1.147-1.236 2-1.236s1.619.474 2 1.236l.612 1.224 3-2c.626 1.252.22 2.783-.945 3.56l-2.97 1.98h-3.395l-2.969-1.979c-1.165-.778-1.571-2.308-.945-3.561zm-13 6.001.612-1.225c.381-.762 1.147-1.236 2-1.236s1.619.474 2 1.236l.612 1.225 3-2c.626 1.252.22 2.782-.945 3.56l-2.97 1.979h-3.395l-2.969-1.979c-1.166-.777-1.572-2.308-.946-3.561zm-24.388-.461h19.112c.092 1.448.832 2.831 2.111 3.685l2.207 1.471-4.652 4.652c-1.791 1.792-2.778 4.173-2.778 6.707 0 2.044.657 3.935 1.761 5.485h-12.446c.434-.911.685-1.926.685-3 0-3.519-2.613-6.432-6-6.92zm-2-10v-2h25 1l.001 2zm19.13-12.317c.414.207.878.317 1.343.317h1.921c.198 0 .39.058.555.168l1.925 1.283c.184.123.324.307.394.517l.521 1.563c.254.76.788 1.376 1.505 1.735l.153.077c.341.169.553.512.553.893v.764c0 .551-.449 1-1 1h-1-1-22.434l14.972-9.113zm-22.13-1.67c0-.508.12-1.017.347-1.471.275-.55.696-1.01 1.219-1.332l10.924-6.722c.519-.319 1.115-.488 1.724-.488h.486c.652 0 1.283.191 1.825.553l3.614 2.409-20.139 12.259zm22.109-5.909c.979.428 1.668 1.319 1.846 2.361l-22.064 13.431c-.979-.428-1.668-1.319-1.846-2.361zm4.891 21.896v4.566c-.363-.117-.753-.138-1.126-.039-.554.147-1.019.526-1.275 1.039-.071.141-.113.289-.169.434h-19.43v-6zm-23 32c-2.757 0-5-2.243-5-5s2.243-5 5-5 5 2.243 5 5-2.243 5-5 5zm29.515 0h-3.029c-4.128 0-7.486-3.357-7.486-7.485 0-1.999.779-3.879 2.192-5.293l5.222-5.222h3.172l4.493 4.493c-.706 1.456-1.079 3.049-1.079 4.697 0 2.366.773 4.55 2.068 6.332-1.412 1.56-3.435 2.478-5.553 2.478zm14.675 0h-.38c-4.858 0-8.81-3.952-8.81-8.81 0-1.875.583-3.667 1.685-5.183l5.824-8.007h2.981l5.824 8.008c1.103 1.515 1.686 3.307 1.686 5.182 0 4.858-3.952 8.81-8.81 8.81z"></path><path d="m46.164 45h2.473v1.999h-2.473z" transform="matrix(.588 -.809 .809 .588 -17.679 57.288)"></path><path d="m46 51.19c0-.629.119-1.239.353-1.813l-1.852-.756c-.333.816-.501 1.68-.501 2.569 0 3.755 3.055 6.81 6.81 6.81h.19v-2h-.19c-2.652 0-4.81-2.157-4.81-4.81z"></path><path d="m33.364 47.707-1.414-1.414-2.342 2.343c-1.037 1.036-1.608 2.414-1.608 3.879 0 1.252.435 2.478 1.223 3.45l1.554-1.26c-.501-.617-.777-1.395-.777-2.19 0-.931.363-1.806 1.021-2.465z"></path><path d="m32.333 55.804-.666 1.887c.583.205 1.195.309 1.818.309h.515v-2h-.515c-.396 0-.784-.065-1.152-.196z"></path><path d="m7 52c-1.654 0-3 1.346-3 3s1.346 3 3 3 3-1.346 3-3-1.346-3-3-3zm0 4c-.551 0-1-.448-1-1s.449-1 1-1 1 .448 1 1-.449 1-1 1z"></path><path d="m17 18h2v2h-2z"></path><path d="m25 16h2v2h-2z"></path><path d="m29 19h2v2h-2z"></path><path d="m21 16h2v2h-2z"></path></g></svg>