<svg id="icons" height="512" viewBox="0 0 340 340" width="512" xmlns="http://www.w3.org/2000/svg"><path d="m73.639 219.43a46.212 46.212 0 0 1 3.269 15.775l14.306 4.561a63.7 63.7 0 0 1 8.537-13.213 6.436 6.436 0 0 0 -5.272-10.672 14.067 14.067 0 0 0 -7 2.938s-2.7-5.843-7.817-6.78a5.5 5.5 0 0 0 -6.023 7.391z" fill="#3d4151"></path><path d="m98.786 239.3c5.589 6.058 10.424 16.069 9.932 32.516l-10.749 23.556-21.177 13.185h-20.375l-.787-56.583a21.049 21.049 0 0 1 11.358-18.316 26.725 26.725 0 0 1 31.798 5.642z" fill="#3d4151"></path><path d="m57.776 251.8s-.179 11.5 14.787 11.5 18-2.494 18-2.494l3.687 8.459-6.724 19.194-20.062 7.158-12.464-4.705-5.748-14.267-3.362-13.99z" fill="#3d4151"></path><path d="m125.1 256.093h10.467a8.776 8.776 0 0 0 4.464-1.221l3.132-1.85a8.776 8.776 0 0 1 9.92.681l26.245 20.826v37.771l-49.114 6.928z" fill="#67a1e5"></path><path d="m118.007 257.046h-20.176a19.568 19.568 0 0 0 -15.72 7.854c-5.26 7.071-14.157 16.977-14.935 29.61l2.338 32.509h40.74s7.753-34.511 7.753-69.973z" fill="#67a1e5"></path><path d="m193 327.019h-58.495v-11.019a13.179 13.179 0 0 1 2.221-7.358c.646-.96 1.433-2.059 2.362-3.237a38.464 38.464 0 0 1 30.227-14.5h17.49z" fill="#4972ba"></path><path d="m234.086 60.4a12.791 12.791 0 0 0 -8.837-5.214 5.443 5.443 0 0 0 -4.782 8.974 53.755 53.755 0 0 1 10.186 17.209l20.608-2.146a74.728 74.728 0 0 1 1-20.033 7.123 7.123 0 0 0 -8.874-8.373c-3.819 1.083-7.532 3.744-9.301 9.583z" fill="#3d4151"></path><path d="m213.164 96.415s6.285-19.12 27.282-23.085c25.085-4.737 43.69 7.822 51.894 31.671l-21.368 50.94-50.021 2.289z" fill="#3d4151"></path><path d="m284.011 124.857c-.6-9.955-4.355-18.541-17.618-9.935-24.993 16.216-45.442 0-45.442 0v30.335l2.706 10.111 1.444 2.672 45.871-2.1z" fill="#3d4151"></path><path d="m278.014 81.8a6.041 6.041 0 0 0 -.658 7.666 33.437 33.437 0 0 1 5.954 15.6l25.565 10.716a41.8 41.8 0 0 1 9.592-7.827 8.14 8.14 0 0 0 3.016-10.811 5.273 5.273 0 0 0 -5.582-2.727 4.245 4.245 0 0 1 -4.571-6.01 7.494 7.494 0 0 0 -4.489-10.371l-.242-.078a7.5 7.5 0 0 0 -7.57 1.838l-1.029 1.03a8.144 8.144 0 0 1 -11.3.953c-.264-.213-.534-.422-.807-.626a6.019 6.019 0 0 0 -7.879.647z" fill="#ffb655"></path><path d="m254.345 151.642s-11.387-26.353 9.6-39.855a65.583 65.583 0 0 1 18.908-8.586 28.182 28.182 0 0 1 28.426 8.755l.283.332a26.269 26.269 0 0 1 4.952 24.341l-8.973 30.39h-42.459z" fill="#ffb655"></path><path d="m157.026 105.222 19.754-13.679a5.775 5.775 0 0 1 7.877 1.244l18.816 24.656-14.061 35.3-16.964-6.114-17.283-34.053a5.774 5.774 0 0 1 1.861-7.354z" fill="#3d4151"></path><path d="m209.088 91.965h3.5a5.425 5.425 0 0 1 5.417 5.124l.865 15.537h-17.561l2.413-16.043a5.426 5.426 0 0 1 5.366-4.618z" fill="#f26d87"></path><path d="m184.253 168.634 8.391-53.3a8.572 8.572 0 0 1 8.468-7.239h9.276a19.121 19.121 0 0 1 10.22 2.961l4 2.533a11.71 11.71 0 0 1 5.426 9.16l2.708 43.087z" fill="#f26d87"></path><path d="m198.116 167.019-15.91-32.1a12.974 12.974 0 0 0 -11.623-7.212h-5.571a11.564 11.564 0 0 0 -8.69 3.936l-7.112 8.1a11.556 11.556 0 0 1 -7.389 3.862 11.553 11.553 0 0 0 -9.5 7.352 287.4 287.4 0 0 0 -10.676 33.761c13.27 11.093 58.648 5.842 76.471-17.699z" fill="#ffb655"></path><path d="m279.949 166.331 20.36-31.167a9.392 9.392 0 0 1 9.06-4.2 30.971 30.971 0 0 1 11.107 3.648 7.924 7.924 0 0 1 3.79 9.056l-5.99 21.288z" fill="#e87b31"></path><path d="m193.823 180.667c-20.079-7.814-42.763-15.715-42.763-15.715s-6.582 19.24-29.414 19.79c-.468 1.933-.91 3.882-1.317 5.833a18.957 18.957 0 0 0 7.415 19.15l4.212 3.078a19.021 19.021 0 0 1 4.536 4.708l4.116 6.092a19.014 19.014 0 0 0 15.755 8.369h21.326z" fill="#e87b31"></path><path d="m151.06 164.952h177.118a0 0 0 0 1 0 0v8.984a11.23 11.23 0 0 1 -11.23 11.23h-154.658a11.23 11.23 0 0 1 -11.23-11.23v-8.984a0 0 0 0 1 0 0z" fill="#9393aa"></path><path d="m167.905 196.974 8.114 119.571a11.234 11.234 0 0 0 11.208 10.474h104.784a11.234 11.234 0 0 0 11.208-10.474l8.114-119.571z" fill="#9393aa"></path><path d="m212.071 231.972a9.027 9.027 0 0 1 9.023 8.743l2.724 86.3h-18.063l-2.707-85.734a9.029 9.029 0 0 1 9.023-9.309z" fill="#3d4151"></path><path d="m267.166 231.972a9.028 9.028 0 0 0 -9.023 8.743l-2.724 86.3h18.064l2.706-85.734a9.027 9.027 0 0 0 -9.023-9.309z" fill="#3d4151"></path><path d="m312.134 185.167h-145.034l.8 11.807h42.8c-.576 3.575-1.415 14.642 9.23 19.009 11.356 4.659 19.866.777 24.378-5.09a6.149 6.149 0 0 1 4.584-2.425 6.078 6.078 0 0 1 5.52 2.959c2.129 3.592 6.469 8.978 13.348 8.978 0 0 19.63 1.947 23.073-23.431h20.493z" fill="#3d4151"></path><path d="m238.016 151.868 4.41-.527a26.765 26.765 0 0 0 10.377-3.494l3.023-1.775a12.187 12.187 0 0 1 8.918-1.369 49.955 49.955 0 0 1 13.668 5.133 13.007 13.007 0 0 1 6.308 11.8 182.076 182.076 0 0 1 -6.611 41.455 8.334 8.334 0 0 1 -7.994 5.984 8.321 8.321 0 0 1 -7.895-5.69l-.2-.6a8.782 8.782 0 0 0 -8.33-6h-7.671a8.782 8.782 0 0 0 -7.306 3.91l-1.326 1.989a8.97 8.97 0 0 1 -8.994 3.863 8.976 8.976 0 0 1 -7.431-9.3 135.952 135.952 0 0 1 6.948-37.208 12.282 12.282 0 0 1 10.106-8.171z" fill="#fff"></path><path d="m134.505 327.019h-26.89v-41.449a32.63 32.63 0 0 1 6.525-19.576l.353-.469a10.151 10.151 0 0 0 2.029-6.089v-5.854a5.443 5.443 0 0 1 5.443-5.443h1.485a5.443 5.443 0 0 1 5.443 5.443v4.968a10.146 10.146 0 0 0 2.465 6.63 32.627 32.627 0 0 1 7.926 21.316v40.523z" fill="#3d4151"></path><path d="m64.5 326.935h-28.245v-43.535a34.263 34.263 0 0 1 6.853-20.557l.37-.494a10.658 10.658 0 0 0 2.131-6.394v-6.148a5.716 5.716 0 0 1 5.716-5.716h1.559a5.717 5.717 0 0 1 5.717 5.716v5.218a10.657 10.657 0 0 0 2.589 6.963 34.266 34.266 0 0 1 8.324 22.385v42.557z" fill="#76768e"></path><g fill="#ced88f"><path d="m46.464 152.51c-7.7-9.074-9.312-20.662-9.622-23.939-.085-.9-.164-1.807-.275-2.708-1.642-13.378-5.279-21.3-8.625-25.918a2.387 2.387 0 0 0 -4.236 2.036 114.856 114.856 0 0 1 4.232 27.333c.492 16.929 8.868 24 15.812 26.962a2.385 2.385 0 0 0 2.714-3.766z"></path><path d="m75.669 158.536a1.712 1.712 0 0 0 2.627-2.1c-6.129-11.782-8.454-25.411-5.639-41.536 3.35-23.408-15.813-39.31-15.813-39.31-20.27-16.71-22.731-33.534-21.068-44.962a1.709 1.709 0 0 0 -3.289-.86c-4.571 11.632-5.909 29.625 13.889 49.063 0 0 15.188 14.49 15.235 35.966 0 .064 0 .122-.009.187-.167 1.742-2.502 29.134 14.067 43.552z"></path><path d="m103.691 165.551a3.334 3.334 0 0 0 4.947-4.18c-4.428-9.144-5.534-18.408-3.186-35.784a137.28 137.28 0 0 0 1.026-30.475 66.986 66.986 0 0 0 -9.695-29.779c-7.084-11.515-9.734-21.15-10.4-28.508a2.882 2.882 0 0 0 -5.663-.473c-2.096 8.348-2.097 19.358 5.08 31.548 15.621 26.547 6.388 56.7 6.388 56.7s-6.509 27.724 11.503 40.951z"></path><path d="m167.992 76.231c-1.552-4.2-5.693-7.271-4.237-18.889 1.095-8.742-1.864-16.708-7.654-23.347a32.222 32.222 0 0 1 -8.047-18.826 2.379 2.379 0 0 0 -4.64-.522c-1.813 5.819-2.234 14.041 2.924 24.078 0 0 7.433 12.231 7.324 22.132 0 0 .607 12.665 9.875 18.831a2.962 2.962 0 0 0 4.455-3.457z"></path><path d="m191.328 69.9a51.752 51.752 0 0 1 .231-18.742 25.994 25.994 0 0 0 -2.1-15.892 43.694 43.694 0 0 1 -4.027-19.956 1.454 1.454 0 0 0 -2.785-.641c-2.032 4.665-3.7 12.13-.927 22.123 2.3 8.314 2.006 13.856 1.458 16.844a21.574 21.574 0 0 0 1.229 12.5 23.585 23.585 0 0 0 3.276 5.426 2.065 2.065 0 0 0 3.645-1.662z"></path><circle cx="23.607" cy="199.717" r="4.306"></circle><circle cx="59.223" cy="171.832" r="4.306"></circle><circle cx="16.128" cy="59.783" r="4.306"></circle><circle cx="218.871" cy="19.512" r="4.306"></circle><circle cx="292.34" cy="27.593" r="4.306"></circle><circle cx="317.61" cy="61.648" r="4.306"></circle><circle cx="23.607" cy="199.717" r="4.306"></circle><ellipse cx="123.729" cy="66.854" rx="7.201" ry="5.787" transform="matrix(.289 -.957 .957 .289 23.944 165.957)"></ellipse></g></svg>