<!--?xml version="1.0" encoding="UTF-8"?-->
<svg fill="#fff" xmlns="http://www.w3.org/2000/svg" viewBox="0 0 64 64" width="512" height="512"><g id="Outline"><path d="M59,21H50a3.024,3.024,0,0,0-2.833,2L41.644,38.662l-1.348.489.643-8.316a2.981,2.981,0,0,0,.645-5.372l2.853-2.395a1,1,0,0,0,.124-1.409l-1.929-2.3,7.034-5.9a2.985,2.985,0,0,0,1.255.412c.089.007.179.011.266.011a2.971,2.971,0,0,0,1.923-.7L54.643,11.9a1,1,0,0,0,.353-.68.992.992,0,0,0-.23-.729L49.623,4.357a1,1,0,0,0-1.408-.123L46.683,5.52a2.964,2.964,0,0,0-.873,3.343l-7.034,5.9-1.929-2.3a1,1,0,0,0-1.409-.123l-5.567,4.672a7.937,7.937,0,0,0-7.881.063A1,1,0,0,0,23,18.808a5.992,5.992,0,0,1,7.94,1.785.993.993,0,0,0,.87.43A1.289,1.289,0,0,0,32,21a3.969,3.969,0,0,1,3.182,1.6.967.967,0,0,0,.852.4A2,2,0,0,1,38,25H10.193a2.946,2.946,0,0,1,3.862-1.8,1,1,0,0,0,1.255-.5,2.968,2.968,0,0,1,4.136-1.312,1,1,0,1,0,.973-1.747A4.935,4.935,0,0,0,13.943,21.1,4.723,4.723,0,0,0,13,21a5.009,5.009,0,0,0-4.9,4H6a3,3,0,0,0,0,6h.341l.56,1.3a24.7,24.7,0,0,0,14.714,13.64l-3.684,1.339A8.982,8.982,0,1,0,20,53c0-.026,0-.052,0-.078l12.331-4.485L37.07,54.76a1,1,0,0,0,1.784-.416l1.664-8.886,2.193-.8L39.987,59.182a1,1,0,0,1-.731.787A1.051,1.051,0,0,1,38.2,59.6l-6.259-8.343a1,1,0,1,0-1.6,1.2L36.6,60.8A3,3,0,0,0,39,62a3.323,3.323,0,0,0,.675-.076,3.008,3.008,0,0,0,2.277-2.37l2.942-15.688.116-.042A2.97,2.97,0,0,0,46.832,42l1.771-5.01a1,1,0,1,0-1.885-.666l-1.771,5.008a.983.983,0,0,1-.609.6L15.927,52.274a4.951,4.951,0,0,0-.683-1.886L42.771,40.38a1,1,0,0,0,.6-.608l5.678-16.1A1,1,0,0,1,50,23h9a1,1,0,0,1,0,2H51.42a1,1,0,0,0-.943.667l-2.43,6.891a1,1,0,0,0,1.887.665L52.128,27H59a3,3,0,0,0,0-6ZM42.386,22.179l-2.459,2.063a3.981,3.981,0,0,0-.905-1.851L41.1,20.647ZM47.968,7.052l.766-.643,3.857,4.6-.766.643a.981.981,0,0,1-.729.23,1,1,0,0,1-.68-.353L47.845,8.46a1,1,0,0,1,.123-1.408ZM31.531,18.234l4.427-3.715,1.286,1.532-2.3,1.928a2.964,2.964,0,0,0-.913,1.378,5.934,5.934,0,0,0-1.788-.352A7.92,7.92,0,0,0,31.531,18.234Zm4.385,2.245a.977.977,0,0,1,.315-.968l10.725-9,1.285,1.532-10.726,9a.922.922,0,0,1-.28.155,3.935,3.935,0,0,0-.76-.171A6.155,6.155,0,0,0,35.916,20.479ZM8.739,31.516,8.518,31H14a1,1,0,0,0,0-2H6a1,1,0,0,1,0-2H40a1,1,0,0,1,0,2H18a1,1,0,0,0,0,2H38.92l-.688,8.9L24.854,44.766A22.692,22.692,0,0,1,8.739,31.516ZM11,60a7,7,0,1,1,4.9-11.979l-2.181.794A4.954,4.954,0,0,0,11,48a5,5,0,1,0,4.756,6.464l2.211-.8A7.009,7.009,0,0,1,11,60Zm3-7a3,3,0,1,1-3-3A3,3,0,0,1,14,53Zm23.306-1.259-3.015-4.019,4.042-1.47Z"></path><circle cx="11" cy="53" r="1"></circle><path d="M19.707,34.293a1,1,0,0,0-1.414,1.414l5,5a1,1,0,0,0,1.414-1.414Z"></path><path d="M26.707,34.293a1,1,0,0,0-1.414,1.414l3,3a1,1,0,0,0,1.414-1.414Z"></path><path d="M35.707,36.293l-3-3a1,1,0,0,0-1.414,1.414l3,3a1,1,0,0,0,1.414-1.414Z"></path></g></svg>
