<svg fill="#fff" id="Desk" enable-background="new 0 0 128 128" height="512" viewBox="0 0 128 128" width="512" xmlns="http://www.w3.org/2000/svg"><g><path id="_x39_" d="m10.799 80.097h18.196c1.105 0 1.984.907 1.984 2.013v43.878c0 1.105-.879 2.013-1.984 2.013h-18.196c-1.106 0-1.984-.907-1.984-2.013v-43.879c0-1.105.878-2.012 1.984-2.012zm57.935 0h48.439c1.104 0 2.012.907 2.012 2.013v43.878c0 1.105-.908 2.013-2.012 2.013h-48.439c-1.105 0-2.014-.907-2.014-2.013v-43.879c.001-1.105.909-2.012 2.014-2.012zm46.455 3.997h-44.472v39.91h44.473v-39.91zm-88.206 0h-14.172v39.91h14.172z"></path><path id="_x38_" d="m79.986 88.544h25.934c1.105 0 2.098.453 2.834 1.162.029.057.086.113.113.17.652.709 1.049 1.645 1.049 2.665v11.167c0 1.077-.453 2.098-1.162 2.807h-.027c-.709.737-1.729 1.19-2.807 1.19h-25.934c-1.078 0-2.068-.453-2.807-1.19-.736-.709-1.189-1.701-1.189-2.807v-11.167c0-1.105.453-2.098 1.189-2.835.71-.709 1.729-1.162 2.807-1.162zm12.981 7.568c1.105 0 1.984.907 1.984 2.013s-.879 1.984-1.984 1.984-2.012-.879-2.012-1.984.906-2.013 2.012-2.013zm12.953-3.571h-25.934v11.167h25.934zm2.947-2.665c.652.766.596 1.928-.113 2.665"></path><path id="_x37_" d="m9.977 15.498h52.039c1.814 0 3.486.737 4.678 1.956 1.189 1.19 1.955 2.834 1.955 4.676v26.843 8.589c0 1.842-.766 3.486-1.955 4.677-1.191 1.219-2.864 1.956-4.678 1.956h-52.039c-1.814 0-3.458-.737-4.677-1.956-1.19-1.19-1.928-2.834-1.928-4.677v-8.589-26.843c0-1.842.737-3.486 1.928-4.676 1.219-1.219 2.863-1.956 4.677-1.956zm54.675 35.488h-57.282v6.576c0 .737.283 1.389.765 1.871.482.454 1.134.765 1.843.765h52.039c.737 0 1.389-.312 1.843-.765.481-.482.793-1.134.793-1.871v-6.576zm-57.282-3.997h57.283v-24.859c0-.736-.312-1.388-.793-1.87-.454-.454-1.106-.766-1.843-.766h-52.04c-.708 0-1.361.312-1.843.766-.481.482-.765 1.134-.765 1.87v24.859zm28.627 6.662c1.105 0 2.012.879 2.012 1.984s-.907 2.012-2.012 2.012-1.984-.907-1.984-2.012.878-1.984 1.984-1.984z"></path><path id="_x36_" d="m29.25 60.198h13.492c1.105 0 2.013.879 2.013 1.984v11.254c0 1.105-.907 2.013-2.013 2.013h-13.492c-1.105 0-1.984-.907-1.984-2.013v-11.253c.001-1.106.879-1.985 1.984-1.985zm11.508 3.997h-9.495v7.257h9.495z"></path><path id="_x35_" d="m99.967 14.789c-.65-.878-.424-2.154.455-2.778.906-.652 2.154-.454 2.777.425l16.75 23.13c.652.878.455 2.126-.424 2.778-.908.652-2.154.454-2.807-.454zm17.037 32.597c.48-.992 1.67-1.417 2.662-.907.992.482 1.389 1.673.908 2.665l-12.471 25.171c-.51.992-1.701 1.418-2.693.907-.992-.481-1.389-1.672-.906-2.664z"></path><path id="_x34_" d="m120.035 38.486c-2.182 0-3.939 1.758-3.939 3.94 0 2.211 1.758 3.968 3.939 3.968 2.184 0 3.969-1.757 3.969-3.968 0-2.182-1.758-3.94-3.969-3.94zm0-3.997c4.395 0 7.965 3.571 7.965 7.937 0 4.393-3.57 7.965-7.965 7.965-4.365 0-7.936-3.572-7.936-7.965.001-4.365 3.544-7.937 7.936-7.937z"></path><path id="_x33_" d="m91.465 5.69 5.641-4.422c1.332-1.021 2.977-1.417 4.535-1.219 1.559.17 3.061.963 4.139 2.268l1.246 1.559c1.049 1.36 1.475 3.033 1.275 4.649-.17 1.587-.992 3.118-2.352 4.195l-5.527 4.365c.141.765.141 1.559.057 2.324-.256 2.154-1.332 4.223-3.146 5.669l-5.074 3.968c-.879.709-2.125.539-2.805-.312l-11.878-15.107c-.68-.85-.537-2.126.342-2.806l5.072-3.997c1.814-1.417 4.053-1.984 6.207-1.729.793.085 1.559.284 2.268.595zm4.139 9.978-3.912-4.96c-.68-.907-1.814-1.502-2.947-1.644-1.162-.142-2.324.17-3.287.906l-3.516 2.75 9.41 11.961 3.516-2.75c.936-.765 1.502-1.842 1.643-2.976.141-1.246-.171-2.295-.907-3.287zm3.853-11.196-4.676 3.713.057.057 3.91 4.96.057.085 4.678-3.713c.51-.368.795-.935.852-1.53.084-.595-.057-1.191-.455-1.701l-1.162-1.474c-.396-.482-.963-.794-1.559-.851-.596-.085-1.22.085-1.702.454z"></path><path id="_x32_" d="m78.512 49.427h12.697c1.162 0 2.184.482 2.949 1.219.736.766 1.189 1.786 1.189 2.92v.34h1.984c3.316 0 5.98 2.693 5.98 5.981v3.912c0 3.289-2.693 5.981-5.98 5.981h-1.984v3.657c0 1.105-.879 2.013-1.984 2.013h-16.976c-1.105 0-2.014-.907-2.014-2.013v-19.871c0-2.268 1.871-4.139 4.139-4.139zm16.836 8.475v7.88h1.984c1.105 0 1.984-.907 1.984-1.984v-3.912c0-1.105-.879-1.984-1.984-1.984zm-4.139-4.478h-12.697c-.084 0-.141.057-.141.142v17.886h12.98v-3.686-11.876-2.324c.001-.057-.056-.142-.142-.142z"></path><path id="_x31_" d="m3.997 71.452h120.007c1.076 0 2.098.453 2.807 1.162.057.057.113.113.141.142.652.709 1.049 1.673 1.049 2.693v4.647c0 1.105-.453 2.098-1.189 2.835-.738.736-1.73 1.162-2.807 1.162h-120.008c-1.077 0-2.097-.426-2.806-1.162-.737-.708-1.191-1.729-1.191-2.834v-4.647c0-1.106.454-2.098 1.19-2.835.709-.71 1.701-1.163 2.807-1.163zm120.007 3.997h-120.007v4.647h120.007zm2.947-2.693c.652.794.596 1.956-.141 2.693"></path></g></svg>