<!--?xml version="1.0" encoding="UTF-8"?-->
<!-- Generator: Adobe Illustrator 26.0.3, SVG Export Plug-In . SVG Version: 6.00 Build 0)  -->
<svg fill="#404A3D" xmlns="http://www.w3.org/2000/svg" xmlns:xlink="http://www.w3.org/1999/xlink" version="1.1" id="Capa_1" x="0px" y="0px" viewBox="0 0 512 512" style="enable-background:new 0 0 512 512;" xml:space="preserve" width="512" height="512">
<g>
	<g>
		<path d="M495.484,264.258H342.21l4.208-67.342c9.829-3.288,16.936-12.575,16.936-23.496v-20.645    C363.355,68.535,294.82,0,210.581,0h-57.806C68.535,0,0,68.535,0,152.774v20.645c0,10.921,7.107,20.209,16.936,23.496    l13.209,211.335c1.899,30.394,27.242,54.201,57.694,54.201h205.982l0.973,11.686C296.564,495.369,314.638,512,335.942,512h104.373    c21.305,0,39.379-16.631,41.148-37.862l13.362-160.331h0.66c9.107,0,16.516-7.41,16.516-16.516v-16.516    C512,271.668,504.59,264.258,495.484,264.258z M346.771,148.645H231.168c20.078-15.078,33.09-39.079,33.09-66.065    c0-25.845-11.942-48.946-30.589-64.099C296.525,29.256,344.813,83.228,346.771,148.645z M115.613,82.581    c0-36.428,29.636-66.065,66.065-66.065s66.065,29.636,66.065,66.065s-29.636,66.065-66.065,66.065S115.613,119.009,115.613,82.581    z M129.686,18.482c-18.647,15.154-30.589,38.254-30.589,64.099c0,26.985,13.012,50.986,33.089,66.065H16.584    C18.541,83.228,66.829,29.256,129.686,18.482z M16.516,165.161h330.323v8.258c0,4.553-3.705,8.258-8.258,8.258H24.774    c-4.553,0-8.258-3.705-8.258-8.258V165.161z M87.839,445.935c-21.751,0-39.852-17.005-41.21-38.715L33.565,198.194h296.226    l-4.129,66.065h-16.548l3.097-49.548H51.145l11.968,191.482c0.814,13.025,11.675,23.228,24.726,23.228h203.229l1.376,16.516    H87.839z M280.774,313.806h0.66l8.258,99.097H87.839c-4.35,0-7.97-3.401-8.242-7.743L68.726,231.226h225.903l-2.065,33.032h-11.79    c-9.107,0-16.516,7.41-16.516,16.516v16.516C264.258,306.397,271.668,313.806,280.774,313.806z M305.891,408.409l87.075,87.075    h-26.189l-58.504-58.504L305.891,408.409z M374.797,453.957l13.332-13.333l13.332,13.332l-13.332,13.333L374.797,453.957z     M363.118,442.277l-13.095-13.095l13.332-13.332l13.095,13.095L363.118,442.277z M338.344,417.503l-13.095-13.095l13.332-13.332    l13.095,13.095L338.344,417.503z M313.57,392.729l-9.802-9.802l-2.424-29.088l25.559,25.559L313.57,392.729z M311.254,472.767    l-0.859-10.305l33.022,33.022h-7.475C323.16,495.484,312.316,485.505,311.254,472.767z M416.324,495.484l-16.516-16.516    l13.332-13.332l29.709,29.709c-0.835,0.087-1.68,0.139-2.534,0.139h-23.991V495.484z M458.406,487.543L299.22,328.356    l-1.212-14.55h12.852l154.516,154.516l-0.371,4.445C464.53,478.462,462.09,483.596,458.406,487.543z M409.956,313.806    l63.042,63.041l-2.015,24.176l-87.217-87.216H409.956z M401.224,354.623l-13.095,13.095l-13.095-13.095l13.095-13.095    L401.224,354.623z M412.903,366.302l13.095,13.095l-13.095,13.095l-13.095-13.095L412.903,366.302z M437.677,391.076    l13.332,13.332l-13.095,13.095l-13.332-13.332L437.677,391.076z M462.688,416.088l6.497,6.497l-2.015,24.176l-17.577-17.577    L462.688,416.088z M360.408,313.806l16.042,16.042l-13.095,13.095l-29.138-29.138H360.408z M474.794,355.286l-41.479-41.479    h44.936L474.794,355.286z M495.484,297.29h-214.71v-16.516h214.71l0.01,16.516C495.494,297.29,495.491,297.29,495.484,297.29z"></path>
		<path d="M247.742,272.516c0-13.66-11.114-24.774-24.774-24.774c-18.38,0-36.009,6.835-49.568,18.969    c-13.157-11.785-30.517-18.969-49.529-18.969c-13.66,0-24.774,11.114-24.774,24.774c0,9.371,5.23,17.541,12.924,21.751    l-6.41,12.82c-4.261,8.522-6.514,18.065-6.514,27.595c0,34.024,27.681,61.705,61.705,61.705h25.234    c34.025,0,61.706-27.681,61.706-61.705c0-9.53-2.252-19.073-6.515-27.595l-6.41-12.82    C242.511,290.057,247.742,281.887,247.742,272.516z M231.226,272.516c0,4.553-3.705,8.258-8.258,8.258    c-11.497,0-22.688,2.632-32.856,7.652c-1.674-3.284-3.583-6.425-5.708-9.405c10.549-9.443,24.264-14.763,38.564-14.763    C227.521,264.258,231.226,267.963,231.226,272.516z M123.871,264.258c26.169,0,48.332,17.481,55.428,41.377    c-13.62-15.248-33.421-24.861-55.428-24.861c-4.553,0-8.258-3.705-8.258-8.258C115.613,267.963,119.318,264.258,123.871,264.258z     M160.802,379.871c-24.917,0-45.189-20.273-45.189-45.189c0-6.98,1.65-13.967,4.77-20.209l8.477-16.953    c29.546,2.538,52.818,27.383,52.818,57.576v8.258c0,9.107-7.41,16.516-16.516,16.516H160.802z M194.181,379.122    c2.557-4.689,4.012-10.06,4.012-15.767v-41.29c0-6.237-0.782-12.292-2.236-18.084c6.824-3.615,14.289-5.807,22.017-6.468    l8.481,16.961c3.121,6.241,4.77,13.228,4.77,20.209C231.226,356.818,215.223,375.274,194.181,379.122z"></path>
	</g>
</g>
</svg>
