<svg fill="#404A3D" id="Capa_1" enable-background="new 0 0 512.022 512.022" height="512" viewBox="0 0 512.022 512.022" width="512" xmlns="http://www.w3.org/2000/svg"><g><g><path d="m33.043 340.361c-8.326 0-15.959-5.139-18.941-13.352l-.042-.117c-34.267-91.689-4.17-200.219 71.519-261.713l-12.245-21.201c-4.009-6.942-3.616-15.315 1.028-21.851s12.418-9.664 20.297-8.162l101.944 19.44c5.787 1.104 10.795 4.663 13.74 9.765 2.946 5.102 3.524 11.218 1.587 16.78l-34.126 98.006c-2.636 7.571-9.231 12.743-17.212 13.498-7.98.764-15.43-3.087-19.439-10.03l-7.926-13.723c-38.715 39.924-50.75 98.136-30.447 151.624 2.03 5.35 1.7 11.337-.906 16.426-2.603 5.083-7.26 8.845-12.776 10.321l-50.73 13.583c-1.782.477-3.569.706-5.325.706zm57.551-306.497c.003 0 .02.044.059.112l16.597 28.738c2.535 4.389 1.385 9.98-2.676 13.014-73.869 55.162-104.05 157.863-71.766 244.202.011.029.022.06.033.089l.06.164c.043.118.173.186.295.152l50.73-13.583c.05-.013.1-.026.146-.117.052-.101.028-.162.009-.212-24.786-65.299-7.164-136.828 44.896-182.23 2.253-1.965 5.265-2.816 8.214-2.328 2.949.49 5.523 2.274 7.018 4.863l14.262 24.694c.042.073.075.11.083.118.058.023.251.004.316-.043 0 .001-.001.001-.001.001-.004 0 .019-.042.046-.118l34.126-98.006c.018-.053.037-.107-.02-.204-.056-.098-.112-.108-.166-.118l-101.942-19.44c-.085-.018-.132-.015-.144-.015-.055.029-.168.187-.175.267z"></path></g><g><path d="m423.934 326.978c-.001 0-.001 0-.002 0-5.891-.001-11.477-2.559-15.325-7.019l-67.806-78.561c-5.239-6.067-6.421-14.366-3.084-21.656s10.391-11.818 18.408-11.818h15.951c-15.074-52.791-60.385-93.183-116.169-102.224-5.65-.916-10.672-4.195-13.778-8.997-3.101-4.795-4.031-10.709-2.552-16.226l13.64-50.87c2.738-10.204 12.645-16.528 23.047-14.707 48.34 8.456 94.175 33.198 129.061 69.667 32.948 34.443 54.741 77.952 61.954 123.356h24.462c8.017 0 15.07 4.527 18.407 11.816 3.338 7.289 2.158 15.587-3.079 21.656l-67.811 78.567c-3.849 4.459-9.435 7.016-15.324 7.016zm-68.073-98.748c.004 0 .028.04.079.099l39.402 45.647c.001 0 .001.001.002.001l28.404 32.917c.07.084.299.084.371 0l67.808-78.563c.057-.064.08-.107.085-.118.002-.061-.078-.237-.144-.284.008.003-.039-.004-.126-.004h-33.178c-5.075 0-9.346-3.803-9.933-8.844-10.583-90.925-84.523-168.51-175.814-184.479-.125-.023-.249.06-.283.187l-13.64 50.869c-.014.051-.026.1.028.185.062.097.133.107.184.116 33.337 5.402 63.801 20.483 88.097 43.611 24.59 23.407 40.963 53.306 47.349 86.463.565 2.93-.209 5.959-2.108 8.259-1.899 2.301-4.728 3.633-7.711 3.633h-28.607c-.085 0-.133.01-.144.013-.048.036-.129.213-.121.292z"></path></g><g><path d="m123.107 498.428c-.654 0-1.313-.031-1.977-.094-7.982-.754-14.579-5.926-17.215-13.497l-34.136-98.006c-1.938-5.564-1.36-11.681 1.586-16.783s7.956-8.661 13.743-9.764l101.929-19.439c7.874-1.506 15.651 1.621 20.296 8.155 4.645 6.535 5.041 14.907 1.034 21.852l-7.982 13.83c53.681 13.59 110.128-5.159 146.58-49.628 3.619-4.416 8.965-7.11 14.665-7.393 5.697-.279 11.274 1.869 15.308 5.902l37.198 37.209c7.444 7.444 7.899 19.534 1.035 27.522-23.445 27.285-52.142 49.002-82.985 62.8-5.043 2.259-10.957-.004-13.212-5.044-2.256-5.042.003-10.957 5.044-13.212 28.172-12.604 54.447-32.514 75.984-57.579.088-.102.083-.253-.01-.346l-37.198-37.209c-.035-.034-.081-.071-.176-.068-.112.006-.152.056-.186.096-32.516 39.668-79.092 61.318-127.198 61.322-17.701.001-35.599-2.928-53.095-8.97-2.821-.974-5.06-3.157-6.104-5.953s-.785-5.913.707-8.498l14.302-24.78c.043-.073.059-.119.061-.131-.009-.06-.122-.219-.195-.253.008.004-.04.004-.124.02l-101.934 19.442c-.054.011-.11.021-.166.118-.056.098-.038.151-.02.204l34.136 98.006c.028.08.053.122.06.132.051.033.245.052.319.018h-.001c-.005 0 .026-.037.067-.108l16.562-28.696c2.517-4.358 7.883-6.17 12.526-4.224 27.046 11.335 55.838 16.905 85.607 16.521.042-.001.085-.001.127-.001 5.465 0 9.928 4.395 9.997 9.875.069 5.522-4.352 10.055-9.874 10.124-29.512.377-58.202-4.61-85.38-14.814l-12.243 21.213c-3.675 6.366-10.243 10.128-17.462 10.129z"></path></g><g><circle cx="283.991" cy="466.65" r="10"></circle></g></g></svg>