<svg fill="#558E4C" id="Layer_1" enable-background="new 0 0 511.959 511.959" height="512" viewBox="0 0 511.959 511.959" width="512" xmlns="http://www.w3.org/2000/svg"><g id="XMLID_1088_"><g id="XMLID_78_"><path id="XMLID_89_" d="m185.091 350.392h-61.919l28.948-50.14 27.971 16.148c3.503 2.023 7.878 1.735 11.088-.727 3.208-2.462 4.618-6.615 3.571-10.522l-31.17-116.328c-1.429-5.335-6.913-8.5-12.248-7.071l-116.328 31.17c-3.907 1.047-6.798 4.344-7.326 8.354s1.412 7.943 4.915 9.965l25.924 14.968-52.139 90.307c-8.504 14.729-8.504 33.03 0 47.759l29.054 50.323c8.503 14.729 24.352 23.88 41.36 23.88h108.298c5.523 0 10-4.477 10-10v-88.085c0-2.652-1.054-5.196-2.929-7.071-1.874-1.876-4.418-2.93-7.07-2.93zm-161.393 23.883c-4.942-8.561-4.942-19.198 0-27.759l57.138-98.966c2.762-4.783 1.123-10.899-3.66-13.66l-13.676-7.897 83.35-22.333 22.333 83.35-15.724-9.078c-2.296-1.326-5.025-1.684-7.588-.999-2.562.687-4.746 2.362-6.072 4.659l-84.604 146.54c-.895-1.107-1.719-2.281-2.442-3.534zm151.392 64.203h-98.298c-1.445 0-2.872-.127-4.276-.347l39.109-67.738h63.466z"></path><path id="XMLID_774_" d="m505.581 344.03-54.149-93.789c-2.761-4.784-8.878-6.423-13.66-3.66l-76.285 44.042c-2.297 1.326-3.973 3.51-4.659 6.072-.687 2.562-.327 5.292.999 7.588l30.96 53.624h-57.897v-32.297c0-4.044-2.437-7.691-6.173-9.239-3.737-1.549-8.038-.692-10.898 2.167l-85.158 85.158c-3.905 3.905-3.905 10.237 0 14.142l85.158 85.159c1.914 1.913 4.471 2.929 7.074 2.929 1.288 0 2.587-.249 3.824-.762 3.737-1.548 6.173-5.194 6.173-9.239v-29.935h104.276c17.008 0 32.857-9.15 41.36-23.879l29.054-50.323c8.505-14.728 8.505-33.028.001-47.758zm-125.434-41.086 58.964-34.042 49.149 85.128c.722 1.251 1.326 2.55 1.837 3.877h-78.217zm79.06 129.168c-4.943 8.561-14.154 13.879-24.04 13.879h-114.277c-5.523 0-10 4.477-10 10v15.792l-61.016-61.016 61.016-61.016v18.155c0 5.523 4.477 10 10 10h169.21c-.511 1.329-1.116 2.63-1.839 3.882z"></path><path id="XMLID_853_" d="m231.528 177.744 30.959-53.624 28.948 50.14-27.97 16.149c-3.503 2.022-5.442 5.956-4.915 9.965.528 4.01 3.419 7.307 7.326 8.354l116.328 31.17c.867.232 1.738.343 2.595.343 4.415 0 8.456-2.947 9.653-7.414l31.17-116.328c1.047-3.907-.363-8.06-3.571-10.522s-7.584-2.75-11.088-.727l-25.924 14.967-9.179-15.899c-2.761-4.784-8.877-6.423-13.66-3.66-4.783 2.761-6.422 8.877-3.66 13.66l14.179 24.559c2.76 4.782 8.877 6.421 13.66 3.66l13.677-7.896-22.333 83.35-83.35-22.333 15.723-9.078c4.783-2.761 6.421-8.877 3.66-13.66l-84.605-146.539c1.406-.221 2.835-.348 4.282-.348h58.107c8.822 0 17.197 4.249 22.402 11.366 3.26 4.458 9.518 5.428 13.975 2.167s5.428-9.518 2.167-13.975c-8.958-12.247-23.367-19.558-38.545-19.558h-58.107c-17.008 0-32.857 9.15-41.361 23.88l-54.149 93.789c-2.762 4.783-1.123 10.899 3.66 13.66l76.284 44.043c2.297 1.327 5.026 1.686 7.588.999 2.564-.687 4.748-2.363 6.074-4.66zm-12.32-18.66-58.964-34.043 49.149-85.128c.722-1.251 1.546-2.424 2.439-3.53l39.109 67.738z"></path><path id="XMLID_854_" d="m344.699 80.349c2.64 0 5.21-1.07 7.07-2.93s2.93-4.44 2.93-7.07-1.07-5.21-2.93-7.07-4.43-2.93-7.07-2.93c-2.63 0-5.21 1.07-7.07 2.93s-2.93 4.44-2.93 7.07c0 2.64 1.07 5.21 2.93 7.07s4.44 2.93 7.07 2.93z"></path></g></g></svg>